<?xml version="1.0" standalone="no"?>
<!DOCTYPE svg PUBLIC "-//W3C//DTD SVG 20010904//EN"
 "http://www.w3.org/TR/2001/REC-SVG-20010904/DTD/svg10.dtd">
<svg version="1.0" xmlns="http://www.w3.org/2000/svg"
 width="500.000000pt" height="500.000000pt" viewBox="0 0 500.000000 500.000000"
 preserveAspectRatio="xMidYMid meet">

<g transform="translate(0.000000,500.000000) scale(0.100000,-0.100000)"
fill="#000000" stroke="none">
<path d="M2800 3609 c-49 -20 -82 -69 -45 -69 8 0 21 -15 29 -34 18 -43 36
-54 43 -28 9 35 36 15 29 -22 -7 -35 15 -76 40 -76 29 0 7 -25 -35 -40 -27 -9
-44 -22 -47 -36 -3 -12 -24 -30 -49 -42 -24 -12 -62 -38 -84 -58 -39 -34 -43
-36 -106 -32 -36 1 -65 1 -64 -2 2 -15 18 -43 18 -32 1 13 81 18 81 4 0 -4
-29 -37 -65 -72 l-65 -64 0 52 c0 38 -4 52 -14 52 -9 0 -16 -17 -21 -50 l-7
-49 -23 27 -24 27 26 3 c17 3 23 8 19 19 -3 8 -6 17 -6 19 0 2 -15 4 -32 4
-18 0 -42 7 -52 15 -11 8 -22 11 -25 6 -3 -4 -15 -11 -27 -15 -38 -12 -59 69
-28 112 14 20 13 25 -17 69 -45 66 -79 107 -79 94 0 -17 -61 -13 -82 6 -17 15
-19 15 -32 -3 -8 -10 -18 -16 -22 -11 -4 4 -2 7 4 7 7 0 12 7 12 15 0 21 -16
19 -41 -6 -18 -18 -30 -21 -80 -17 -81 6 -86 -2 -55 -99 14 -43 36 -116 50
-163 14 -47 25 -77 25 -67 1 15 16 17 165 17 l165 0 20 -29 c12 -16 21 -32 21
-34 0 -3 -21 -7 -47 -9 -28 -2 -47 -8 -49 -16 -1 -7 0 -8 3 -2 2 5 26 10 53
10 45 0 50 -3 79 -42 16 -24 40 -53 53 -66 l23 -22 -95 6 c-52 3 -104 7 -115
9 -20 4 -20 4 -1 -10 16 -12 61 -15 223 -15 l203 0 0 -55 0 -55 -405 0 -405 0
0 55 0 54 122 3 c109 3 119 4 103 18 -11 9 -16 10 -11 3 5 -10 -14 -13 -83
-13 -50 0 -91 4 -91 8 0 17 63 103 82 113 11 6 42 9 69 7 27 -1 49 0 49 5 0 4
-25 7 -55 7 -41 0 -57 4 -62 16 -4 12 -8 11 -17 -8 -11 -21 -19 -23 -99 -26
l-87 -3 0 113 c0 77 -3 108 -10 98 -5 -8 -10 -30 -10 -48 0 -18 -6 -34 -12
-36 -50 -15 -54 -19 -23 -25 29 -6 30 -9 33 -63 l3 -57 79 -3 78 -3 -34 -58
c-19 -32 -34 -64 -34 -72 0 -8 -15 -22 -32 -31 -18 -9 -48 -28 -66 -41 l-34
-26 -68 68 c-45 45 -70 63 -75 55 -5 -8 18 -37 60 -80 l67 -67 -22 -44 c-13
-25 -25 -70 -28 -106 -4 -54 -2 -63 12 -63 13 0 16 11 16 53 1 90 53 177 133
218 l37 19 0 -194 c0 -137 -3 -195 -11 -198 -9 -3 -9 -9 0 -25 6 -13 12 -82
13 -170 l2 -148 6 125 c3 69 7 114 10 101 3 -14 11 -26 19 -29 10 -3 12 5 6
38 -4 24 -14 58 -21 76 -10 24 -14 81 -14 204 l0 170 145 0 145 0 3 -342 2
-343 3 343 2 343 263 -3 262 -3 -5 65 -5 65 -74 5 -75 5 38 33 c43 37 38 36
102 17 62 -18 110 -60 118 -102 5 -30 2 -34 -37 -58 -48 -28 -43 -30 30 -11
47 13 53 12 68 -4 8 -9 39 -30 68 -45 28 -15 53 -29 55 -31 6 -4 -26 -58 -48
-81 -18 -20 -31 -23 -100 -23 -69 0 -82 -3 -92 -20 -11 -17 -25 -20 -83 -22
-56 -1 -60 -2 -22 -5 l47 -4 -1 -162 c0 -100 -4 -154 -9 -142 -6 14 -9 15 -9
5 -1 -9 3 -20 8 -25 6 -6 12 -39 14 -75 2 -36 4 40 5 169 l2 234 31 -7 c17 -3
76 -6 130 -6 l99 0 0 -180 0 -180 -84 0 c-82 0 -84 1 -80 23 4 20 4 21 -5 2
-18 -38 -13 -40 78 -37 l90 3 4 -43 4 -43 1 43 2 42 95 0 c66 0 95 -4 95 -12
0 -6 2 -9 5 -6 3 3 1 16 -4 29 -5 13 -10 18 -10 12 -1 -10 -26 -13 -91 -13
l-90 0 0 180 0 180 34 0 c19 0 37 -6 39 -12 4 -10 6 -10 6 0 1 7 16 12 40 12
31 0 47 7 75 34 22 20 36 43 36 57 0 18 8 28 30 36 17 6 30 7 30 2 0 -5 12 -9
26 -9 16 0 24 5 21 13 -4 12 -13 14 -74 16 -44 1 -46 31 -3 31 22 0 28 4 24
15 -4 8 -16 15 -29 15 -17 0 -26 8 -34 30 -5 17 -15 30 -21 30 -8 0 -9 10 -5
30 4 17 3 30 -2 30 -4 0 -9 10 -10 23 -1 12 -7 75 -14 140 l-13 118 57 57 c51
52 70 82 50 82 -4 0 -29 -21 -55 -47 l-48 -47 0 102 c0 61 -4 102 -10 102 -6
0 -10 -32 -10 -77 0 -70 -1 -76 -14 -57 -8 11 -40 36 -70 55 -30 19 -57 43
-60 54 -10 34 -6 69 9 89 8 10 19 43 25 72 9 43 8 58 -4 82 -8 16 -23 32 -31
36 -24 9 -96 6 -125 -5z m-62 -634 c6 -38 9 -71 7 -73 -2 -3 -15 2 -28 11 -14
9 -35 13 -48 11 -18 -4 -20 -3 -10 4 10 8 6 12 -19 17 l-32 7 53 54 c29 30 56
51 60 46 3 -4 11 -38 17 -77z"/>
<path d="M3042 3608 c-16 -16 -15 -63 2 -77 42 -35 111 20 82 64 -15 23 -66
31 -84 13z m66 -36 c4 -28 -24 -41 -44 -20 -20 20 -7 50 20 46 13 -2 22 -12
24 -26z"/>
<path d="M3242 3608 c-16 -16 -15 -61 0 -76 31 -31 98 -2 83 35 -6 16 -8 16
-16 -4 -10 -27 -47 -31 -56 -7 -3 9 -1 25 5 35 13 21 1 34 -16 17z"/>
<path d="M3291 3617 c2 -1 13 -9 24 -17 19 -14 19 -14 6 3 -7 9 -18 17 -24 17
-6 0 -8 -1 -6 -3z"/>
<path d="M3070 3475 c0 -19 5 -35 10 -35 6 0 10 16 10 35 0 19 -4 35 -10 35
-5 0 -10 -16 -10 -35z"/>
<path d="M3270 3494 c0 -8 5 -12 10 -9 6 3 10 10 10 16 0 5 -4 9 -10 9 -5 0
-10 -7 -10 -16z"/>
<path d="M2730 3470 c0 -11 2 -20 4 -20 2 0 6 9 9 20 3 11 1 20 -4 20 -5 0 -9
-9 -9 -20z"/>
<path d="M3270 3430 c0 -22 5 -40 10 -40 6 0 10 18 10 40 0 22 -4 40 -10 40
-5 0 -10 -18 -10 -40z"/>
<path d="M3070 3389 c0 -11 4 -18 10 -14 5 3 7 12 3 20 -7 21 -13 19 -13 -6z"/>
<path d="M1720 3390 c-13 -9 -13 -10 0 -10 8 0 22 5 30 10 13 9 13 10 0 10 -8
0 -22 -5 -30 -10z"/>
<path d="M1770 3360 c10 -18 9 -25 -2 -37 -19 -18 -48 -7 -48 19 0 11 -5 18
-12 16 -22 -8 -20 -27 6 -53 18 -18 26 -37 26 -61 0 -21 4 -33 10 -29 6 3 10
21 10 38 0 21 8 39 21 50 25 22 23 70 -4 75 -16 3 -17 1 -7 -18z"/>
<path d="M2415 3360 c10 -11 20 -20 23 -20 3 0 -3 9 -13 20 -10 11 -20 20 -23
20 -3 0 3 -9 13 -20z"/>
<path d="M3270 3357 c0 -13 -13 -36 -30 -52 -28 -27 -40 -55 -22 -55 4 0 22
15 40 33 22 23 32 43 32 65 0 18 -4 32 -10 32 -5 0 -10 -10 -10 -23z"/>
<path d="M1296 3332 c-2 -4 -7 -24 -11 -44 -6 -34 -5 -38 18 -43 48 -12 70 -3
74 31 3 20 -2 38 -12 48 -17 16 -60 22 -69 8z m49 -42 c0 -16 -6 -26 -18 -28
-19 -4 -32 20 -23 44 9 25 41 13 41 -16z"/>
<path d="M1381 3233 c-9 -4 12 -31 60 -79 l73 -74 73 0 c39 0 75 5 78 10 4 6
-19 10 -62 10 l-68 0 -70 69 c-40 39 -76 67 -84 64z"/>
<path d="M2280 3233 c0 -4 5 -15 10 -23 8 -13 10 -13 10 2 0 9 -4 20 -10 23
-5 3 -10 3 -10 -2z"/>
<path d="M3645 3210 c-3 -5 -3 -10 1 -10 4 0 0 -6 -11 -13 -11 -9 -15 -19 -10
-27 5 -8 -18 -38 -66 -86 -73 -74 -74 -74 -127 -74 -33 0 -51 -4 -47 -10 3 -5
32 -10 63 -10 l57 0 76 78 c67 68 75 81 74 112 -2 24 3 37 14 42 14 6 14 7 -1
7 -9 1 -20 -3 -23 -9z"/>
<path d="M2331 3164 c0 -11 3 -14 6 -6 3 7 2 16 -1 19 -3 4 -6 -2 -5 -13z"/>
<path d="M3686 3145 c-11 -8 -17 -18 -13 -21 10 -11 37 4 37 21 0 18 0 18 -24
0z"/>
<path d="M1396 2994 c-38 -37 0 -100 52 -87 18 4 31 -2 56 -26 26 -25 35 -29
39 -18 3 9 -9 28 -28 47 -19 18 -32 37 -29 42 3 5 -2 20 -10 33 -19 29 -57 33
-80 9z m52 -13 c20 -12 10 -46 -14 -49 -25 -4 -40 24 -23 44 13 16 19 17 37 5z"/>
<path d="M3208 2923 c-50 -50 -75 -82 -70 -90 5 -9 33 13 87 67 68 68 85 80
113 80 20 0 31 4 27 10 -3 6 -23 10 -43 10 -33 0 -46 -9 -114 -77z"/>
<path d="M2061 2954 c0 -11 3 -14 6 -6 3 7 2 16 -1 19 -3 4 -6 -2 -5 -13z"/>
<path d="M2211 2944 c0 -11 3 -14 6 -6 3 7 2 16 -1 19 -3 4 -6 -2 -5 -13z"/>
<path d="M2201 2904 c0 -11 3 -14 6 -6 3 7 2 16 -1 19 -3 4 -6 -2 -5 -13z"/>
<path d="M3302 2715 c-23 -22 -31 -35 -22 -35 9 0 23 -9 33 -20 33 -39 87 -18
87 35 0 24 -6 38 -19 45 -30 15 -38 13 -79 -25z m75 -11 c3 -8 -1 -22 -9 -30
-12 -12 -17 -12 -33 -1 -23 17 -14 47 15 47 11 0 23 -7 27 -16z"/>
<path d="M2618 2713 c7 -3 16 -2 19 1 4 3 -2 6 -13 5 -11 0 -14 -3 -6 -6z"/>
<path d="M2578 2703 c7 -3 16 -2 19 1 4 3 -2 6 -13 5 -11 0 -14 -3 -6 -6z"/>
<path d="M3236 2695 c4 -8 10 -15 14 -15 4 0 13 7 20 15 11 13 8 15 -13 15
-19 0 -25 -4 -21 -15z"/>
<path d="M2538 2693 c7 -3 16 -2 19 1 4 3 -2 6 -13 5 -11 0 -14 -3 -6 -6z"/>
<path d="M2498 2683 c7 -3 16 -2 19 1 4 3 -2 6 -13 5 -11 0 -14 -3 -6 -6z"/>
<path d="M2458 2673 c7 -3 16 -2 19 1 4 3 -2 6 -13 5 -11 0 -14 -3 -6 -6z"/>
<path d="M2418 2663 c7 -3 16 -2 19 1 4 3 -2 6 -13 5 -11 0 -14 -3 -6 -6z"/>
<path d="M3330 2591 c30 -27 60 -46 67 -44 19 7 0 29 -56 65 -68 42 -73 33
-11 -21z"/>
<path d="M2323 2540 c0 -30 2 -43 4 -27 2 15 2 39 0 55 -2 15 -4 2 -4 -28z"/>
<path d="M3400 2533 c0 -11 12 -26 34 -43 19 -15 19 -14 2 18 -15 29 -36 44
-36 25z"/>
<path d="M2571 2484 c0 -11 3 -14 6 -6 3 7 2 16 -1 19 -3 4 -6 -2 -5 -13z"/>
<path d="M2836 2464 c-4 -14 -5 -28 -3 -31 3 -2 8 8 11 23 4 14 5 28 3 31 -3
2 -8 -8 -11 -23z"/>
<path d="M1561 2469 c-41 -12 -111 -56 -111 -69 0 -14 1 -14 84 31 93 50 99
58 27 38z"/>
<path d="M1642 2468 c3 -7 26 -16 52 -20 27 -4 62 -18 81 -32 34 -26 59 -20
35 9 -32 39 -179 76 -168 43z"/>
<path d="M3427 2466 c9 -17 123 -89 122 -78 0 4 -30 26 -65 50 -36 23 -62 36
-57 28z"/>
<path d="M3011 2460 c0 -8 4 -22 9 -30 12 -18 12 -2 0 25 -6 13 -9 15 -9 5z"/>
<path d="M2591 2394 c0 -11 3 -14 6 -6 3 7 2 16 -1 19 -3 4 -6 -2 -5 -13z"/>
<path d="M1420 2375 c-11 -13 -10 -14 4 -9 9 3 16 10 16 15 0 13 -6 11 -20 -6z"/>
<path d="M2811 2374 c0 -11 3 -14 6 -6 3 7 2 16 -1 19 -3 4 -6 -2 -5 -13z"/>
<path d="M3041 2370 c0 -8 4 -24 9 -35 5 -13 9 -14 9 -5 0 8 -4 24 -9 35 -5
13 -9 14 -9 5z"/>
<path d="M3560 2376 c0 -2 12 -28 27 -56 57 -110 37 -238 -49 -316 -47 -42
-85 -59 -151 -69 -63 -10 -70 -25 -10 -25 29 0 68 9 99 24 l52 24 52 -53 c29
-29 49 -58 46 -64 -10 -16 12 -51 31 -51 13 0 14 3 5 12 -30 30 1 74 33 48 12
-10 15 -9 15 9 0 17 -6 21 -32 21 -25 0 -43 11 -80 47 l-47 46 30 38 c79 100
86 241 17 342 -17 23 -38 36 -38 23z"/>
<path d="M1411 2344 c-13 -9 -29 -32 -37 -50 -16 -39 -18 -135 -4 -196 5 -24
12 -55 15 -69 6 -32 31 -44 53 -27 13 11 15 10 10 -3 -4 -11 6 -24 36 -43 l43
-27 -56 -54 c-33 -32 -50 -55 -41 -55 9 0 34 18 55 40 39 40 39 40 117 40 65
0 76 2 72 15 -4 10 -20 15 -43 15 -22 0 -64 13 -100 31 -137 69 -189 226 -117
356 14 23 24 43 23 43 -2 0 -13 -7 -26 -16z"/>
<path d="M2601 2344 c0 -11 3 -14 6 -6 3 7 2 16 -1 19 -3 4 -6 -2 -5 -13z"/>
<path d="M2776 2259 c-9 -34 -15 -63 -13 -66 2 -2 12 24 21 58 10 33 16 63 13
65 -2 2 -11 -24 -21 -57z"/>
<path d="M2611 2294 c0 -11 3 -14 6 -6 3 7 2 16 -1 19 -3 4 -6 -2 -5 -13z"/>
<path d="M2621 2254 c0 -11 3 -14 6 -6 3 7 2 16 -1 19 -3 4 -6 -2 -5 -13z"/>
<path d="M2565 2161 c-6 -4 -32 -14 -58 -21 -41 -11 -50 -11 -59 1 -8 11 -9
10 -4 -4 3 -10 6 -20 6 -22 0 -2 10 -1 23 2 17 4 19 3 11 -6 -6 -7 -30 -15
-52 -18 -23 -3 -49 -14 -58 -24 -17 -18 -14 -19 94 -19 62 0 112 4 112 9 0 5
14 14 30 21 31 13 42 51 19 66 -8 4 -7 9 2 16 13 9 -14 3 -50 -10 -9 -3 -12
-1 -7 6 8 14 4 16 -9 3z"/>
<path d="M2721 2064 c0 -11 3 -14 6 -6 3 7 2 16 -1 19 -3 4 -6 -2 -5 -13z"/>
<path d="M1692 1918 c6 -17 61 -30 69 -16 4 7 47 10 118 10 62 -1 109 2 107 7
-9 14 -298 13 -294 -1z"/>
<path d="M2000 1920 c0 -6 21 -10 47 -10 l47 0 -27 -28 c-21 -22 -27 -37 -26
-73 1 -70 17 -96 18 -28 1 50 5 58 37 90 35 34 36 34 147 39 62 3 133 4 159 2
46 -3 47 -4 50 -40 l3 -37 187 -3 187 -2 3 -102 c2 -70 7 -103 16 -106 9 -3
12 20 12 93 0 92 -1 97 -27 120 -27 24 -33 24 -190 25 l-163 0 0 25 0 25 136
0 c86 0 133 4 129 10 -8 13 -745 13 -745 0z"/>
<path d="M2765 1920 c3 -5 33 -10 66 -10 33 0 59 4 59 10 0 6 -29 10 -66 10
-41 0 -63 -4 -59 -10z"/>
<path d="M2900 1920 c0 -6 33 -10 79 -10 44 0 82 -4 85 -9 3 -5 6 -79 7 -165
0 -102 4 -154 10 -150 6 3 10 20 9 38 -1 17 -2 74 -1 126 l1 94 53 -52 c29
-29 56 -52 60 -52 20 0 1 31 -54 86 -34 35 -58 67 -55 73 5 7 48 11 117 11 66
0 109 4 109 10 0 6 -77 10 -210 10 -133 0 -210 -4 -210 -10z"/>
<path d="M1740 1863 c0 -10 5 -25 10 -33 7 -11 10 -7 10 18 0 17 -4 32 -10 32
-5 0 -10 -8 -10 -17z"/>
<path d="M2840 1845 c7 -9 15 -13 17 -11 7 7 -7 26 -19 26 -6 0 -6 -6 2 -15z"/>
<path d="M1384 1787 c-16 -14 -23 -26 -17 -30 5 -3 23 7 38 23 34 35 18 40
-21 7z"/>
<path d="M1740 1763 c0 -29 -4 -53 -10 -53 -5 0 -17 -11 -25 -24 -13 -19 -14
-29 -6 -45 13 -24 66 -37 86 -21 22 18 19 67 -5 82 -14 9 -20 24 -20 48 0 19
-5 42 -10 50 -7 11 -10 0 -10 -37z m30 -88 c10 -12 10 -18 0 -30 -25 -30 -61
-7 -46 30 3 8 12 15 19 15 8 0 20 -7 27 -15z"/>
<path d="M3695 1790 c-3 -5 -2 -10 4 -10 5 0 13 5 16 10 3 6 2 10 -4 10 -5 0
-13 -4 -16 -10z"/>
<path d="M1349 1731 c15 -27 31 -36 31 -17 0 8 -9 20 -21 26 -19 11 -20 10
-10 -9z"/>
<path d="M3217 1736 c-4 -10 4 -24 23 -38 17 -12 30 -30 30 -40 0 -10 5 -18
10 -18 22 0 8 48 -24 79 -27 26 -34 29 -39 17z"/>
<path d="M1271 1704 c0 -11 3 -14 6 -6 3 7 2 16 -1 19 -3 4 -6 -2 -5 -13z"/>
<path d="M1297 1680 c3 -11 12 -20 21 -20 13 0 12 3 -3 20 -10 11 -19 20 -21
20 -1 0 0 -9 3 -20z"/>
<path d="M1340 1680 c0 -5 5 -10 10 -10 6 0 10 5 10 10 0 6 -4 10 -10 10 -5 0
-10 -4 -10 -10z"/>
<path d="M2005 1666 c-13 -19 -14 -29 -5 -45 12 -23 44 -43 54 -34 11 11 6 21
-14 26 -24 6 -27 45 -5 53 19 8 19 24 0 24 -8 0 -22 -11 -30 -24z"/>
<path d="M2066 1673 c4 -10 7 -33 7 -51 -1 -28 1 -31 13 -21 17 14 18 61 2 77
-18 18 -31 15 -22 -5z"/>
<path d="M3270 1596 c0 -14 5 -28 10 -31 6 -4 10 7 10 24 0 17 -4 31 -10 31
-5 0 -10 -11 -10 -24z"/>
<path d="M2807 1592 c-21 -23 -22 -52 -2 -52 8 0 15 9 15 20 0 31 30 37 51 12
20 -26 29 -28 29 -8 0 42 -64 60 -93 28z"/>
<path d="M3076 1548 c-4 -9 -6 -27 -4 -40 2 -15 -4 -26 -17 -33 -23 -12 -32
-60 -14 -81 14 -17 63 -19 76 -1 23 29 23 48 -1 72 -15 15 -26 39 -28 62 -3
28 -6 33 -12 21z m32 -116 c4 -28 -24 -41 -44 -20 -20 20 -7 50 20 46 13 -2
22 -12 24 -26z"/>
<path d="M3270 1517 c0 -21 -7 -36 -20 -45 -22 -14 -27 -61 -8 -80 17 -17 63
-15 77 2 18 21 9 69 -14 81 -15 7 -19 18 -17 43 2 18 -1 32 -7 32 -6 0 -11
-15 -11 -33z m38 -81 c5 -25 -12 -39 -37 -31 -20 6 -28 34 -14 49 13 13 48 1
51 -18z"/>
<path d="M2810 1520 c0 -16 57 -16 75 1 5 5 -7 9 -33 9 -23 0 -42 -4 -42 -10z"/>
</g>
</svg>
